<svg width="20" height="20" viewBox="0 0 20 20"  xmlns="http://www.w3.org/2000/svg">
<g clip-path="url(#clip0_287_45)">
<path d="M17.9168 3.33325H16.1112V4.44436H17.7779V16.6666H2.22234V4.44436H3.889V3.33325H2.08345C1.95358 3.33542 1.82541 3.36316 1.70626 3.41487C1.58712 3.46658 1.47932 3.54126 1.38904 3.63464C1.29876 3.72801 1.22775 3.83826 1.18009 3.95909C1.13242 4.07991 1.10902 4.20894 1.11123 4.33881V16.7721C1.10902 16.902 1.13242 17.031 1.18009 17.1519C1.22775 17.2727 1.29876 17.3829 1.38904 17.4763C1.47932 17.5697 1.58712 17.6444 1.70626 17.6961C1.82541 17.7478 1.95358 17.7755 2.08345 17.7777H17.9168C18.0466 17.7755 18.1748 17.7478 18.294 17.6961C18.4131 17.6444 18.5209 17.5697 18.6112 17.4763C18.7015 17.3829 18.7725 17.2727 18.8201 17.1519C18.8678 17.031 18.8912 16.902 18.889 16.7721V4.33881C18.8912 4.20894 18.8678 4.07991 18.8201 3.95909C18.7725 3.83826 18.7015 3.72801 18.6112 3.63464C18.5209 3.54126 18.4131 3.46658 18.294 3.41487C18.1748 3.36316 18.0466 3.33542 17.9168 3.33325Z" />
<path d="M4.44434 7.77783H5.55545V8.88894H4.44434V7.77783Z" />
<path d="M7.77783 7.77783H8.88894V8.88894H7.77783V7.77783Z" />
<path d="M11.1111 7.77783H12.2222V8.88894H11.1111V7.77783Z" />
<path d="M14.4443 7.77783H15.5554V8.88894H14.4443V7.77783Z" />
<path d="M4.44434 10.5557H5.55545V11.6668H4.44434V10.5557Z" />
<path d="M7.77783 10.5557H8.88894V11.6668H7.77783V10.5557Z" />
<path d="M11.1111 10.5557H12.2222V11.6668H11.1111V10.5557Z" />
<path d="M14.4443 10.5557H15.5554V11.6668H14.4443V10.5557Z" />
<path d="M4.44434 13.3333H5.55545V14.4444H4.44434V13.3333Z" />
<path d="M7.77783 13.3333H8.88894V14.4444H7.77783V13.3333Z" />
<path d="M11.1111 13.3333H12.2222V14.4444H11.1111V13.3333Z" />
<path d="M14.4443 13.3333H15.5554V14.4444H14.4443V13.3333Z" />
<path d="M5.55556 5.55553C5.7029 5.55553 5.84421 5.497 5.94839 5.39281C6.05258 5.28862 6.11111 5.14732 6.11111 4.99997V1.66664C6.11111 1.5193 6.05258 1.37799 5.94839 1.2738C5.84421 1.16962 5.7029 1.11108 5.55556 1.11108C5.40821 1.11108 5.26691 1.16962 5.16272 1.2738C5.05853 1.37799 5 1.5193 5 1.66664V4.99997C5 5.14732 5.05853 5.28862 5.16272 5.39281C5.26691 5.497 5.40821 5.55553 5.55556 5.55553Z" />
<path d="M14.4445 5.55553C14.5918 5.55553 14.7331 5.497 14.8373 5.39281C14.9415 5.28862 15 5.14732 15 4.99997V1.66664C15 1.5193 14.9415 1.37799 14.8373 1.2738C14.7331 1.16962 14.5918 1.11108 14.4445 1.11108C14.2971 1.11108 14.1558 1.16962 14.0516 1.2738C13.9474 1.37799 13.8889 1.5193 13.8889 1.66664V4.99997C13.8889 5.14732 13.9474 5.28862 14.0516 5.39281C14.1558 5.497 14.2971 5.55553 14.4445 5.55553Z" />
<path d="M7.22217 3.33325H12.7777V4.44436H7.22217V3.33325Z" />
</g>
<defs>
<clipPath id="clip0_287_45">
<rect width="20" height="20" fill="white"/>
</clipPath>
</defs>
</svg>
